<?xml version="1.0" standalone="no"?>
<!DOCTYPE svg PUBLIC "-//W3C//DTD SVG 20010904//EN"
 "http://www.w3.org/TR/2001/REC-SVG-20010904/DTD/svg10.dtd">
<svg version="1.0" xmlns="http://www.w3.org/2000/svg"
 width="512.000000pt" height="512.000000pt" viewBox="0 0 512.000000 512.000000"
 preserveAspectRatio="xMidYMid meet">

<g transform="translate(0.000000,512.000000) scale(0.100000,-0.100000)"
fill="#000000" stroke="none">
<path d="M2470 4811 c-245 -34 -455 -188 -555 -406 -47 -101 -65 -186 -65
-302 0 -200 66 -360 210 -504 73 -73 100 -94 180 -132 52 -25 120 -50 150 -57
30 -6 63 -14 73 -17 16 -4 17 -45 17 -674 l0 -669 -897 -2 -898 -3 -47 -23
c-60 -30 -120 -90 -150 -150 -22 -45 -23 -60 -26 -289 l-3 -243 -166 0 c-195
0 -233 -11 -271 -79 -23 -40 -23 -43 -20 -450 3 -396 4 -410 24 -437 11 -15
33 -37 48 -48 27 -20 39 -21 449 -21 469 0 466 0 507 68 19 30 20 53 20 445 0
455 1 449 -62 494 -31 21 -44 23 -200 26 l-168 4 0 221 c0 248 4 266 72 307
32 19 53 20 911 20 l877 0 0 -274 0 -275 -174 -3 c-191 -3 -202 -6 -250 -72
-20 -27 -21 -39 -21 -446 0 -410 0 -419 21 -447 12 -15 36 -37 55 -48 33 -19
52 -20 449 -20 461 0 453 -1 502 67 l23 33 0 417 c0 405 -1 417 -21 444 -48
66 -59 69 -250 72 l-174 3 0 275 0 274 878 0 c857 0 878 -1 910 -20 68 -41 72
-59 72 -307 l0 -221 -167 -4 c-157 -3 -170 -5 -201 -26 -63 -45 -62 -39 -62
-494 0 -392 1 -415 20 -445 41 -68 38 -68 507 -68 410 0 422 1 449 21 15 11
37 33 48 48 20 27 21 41 24 437 3 407 3 410 -20 450 -38 68 -76 79 -271 79
l-166 0 -3 243 c-3 230 -4 244 -26 290 -34 68 -102 132 -167 156 -55 21 -71
21 -940 21 l-885 0 0 669 c0 629 1 670 18 674 9 3 42 11 72 17 30 7 98 32 150
57 79 38 107 59 180 132 70 70 95 103 132 178 64 127 82 215 75 362 -4 88 -11
133 -31 189 -64 184 -188 327 -358 413 -114 57 -285 87 -408 70z m-1580 -3741
c13 -13 20 -33 20 -56 0 -41 5 -35 -271 -303 -147 -142 -171 -161 -200 -161
-29 0 -49 16 -167 134 -130 130 -135 136 -128 168 8 41 39 68 78 68 25 0 48
-17 124 -92 l94 -92 178 177 c166 165 181 177 215 177 24 0 44 -7 57 -20z
m2031 1 c32 -26 31 -81 -1 -117 -14 -14 -114 -111 -222 -215 -171 -164 -201
-189 -228 -189 -28 0 -51 18 -163 129 -112 110 -130 133 -130 160 0 41 37 81
75 81 21 0 51 -21 125 -89 l98 -89 178 174 c159 155 182 174 211 174 19 0 44
-8 57 -19z m2038 -7 c43 -55 38 -63 -193 -291 -118 -116 -224 -214 -236 -218
-41 -13 -68 5 -194 127 -117 114 -126 126 -126 160 0 27 7 42 26 57 50 40 76
30 177 -68 l92 -89 180 174 c166 160 183 173 217 174 28 0 41 -6 57 -26z"/>
</g>
</svg>
