<?xml version="1.0" standalone="no"?>
<!DOCTYPE svg PUBLIC "-//W3C//DTD SVG 20010904//EN"
 "http://www.w3.org/TR/2001/REC-SVG-20010904/DTD/svg10.dtd">
<svg version="1.0" xmlns="http://www.w3.org/2000/svg"
 width="100.000000pt" height="100.000000pt" viewBox="0 0 100.000000 100.000000"
 preserveAspectRatio="xMidYMid meet">

<g transform="translate(0.000000,100.000000) scale(0.100000,-0.100000)"
fill="#000000" stroke="none">
<path d="M104 982 c-13 -13 -30 -64 -53 -170 -33 -147 -34 -152 -16 -172 18
-19 30 -20 465 -20 435 0 447 1 465 20 18 20 17 25 -16 172 -23 106 -40 157
-53 170 -18 17 -46 18 -396 18 -350 0 -378 -1 -396 -18z"/>
<path d="M20 455 c0 -142 1 -147 25 -170 l24 -25 431 0 431 0 24 25 c24 23 25
28 25 170 0 141 -1 145 -19 135 -13 -6 -176 -10 -461 -10 -285 0 -448 4 -461
10 -18 10 -19 6 -19 -135z"/>
<path d="M160 120 c0 -113 1 -120 20 -120 19 0 20 7 20 120 0 113 -1 120 -20
120 -19 0 -20 -7 -20 -120z"/>
<path d="M362 123 l3 -118 135 0 135 0 3 118 3 117 -141 0 -141 0 3 -117z
m168 42 c15 -18 10 -45 -12 -59 -35 -22 -74 27 -48 59 16 19 44 19 60 0z"/>
<path d="M800 120 c0 -113 1 -120 20 -120 19 0 20 7 20 120 0 113 -1 120 -20
120 -19 0 -20 -7 -20 -120z"/>
</g>
</svg>
