<?xml version="1.0" standalone="no"?>
<!DOCTYPE svg PUBLIC "-//W3C//DTD SVG 20010904//EN"
 "http://www.w3.org/TR/2001/REC-SVG-20010904/DTD/svg10.dtd">
<svg version="1.0" xmlns="http://www.w3.org/2000/svg"
 width="512.000000pt" height="512.000000pt" viewBox="0 0 512.000000 512.000000"
 preserveAspectRatio="xMidYMid meet">

<g transform="translate(0.000000,512.000000) scale(0.100000,-0.100000)"
fill="#000000" stroke="none">
<path d="M1267 3940 c-536 -49 -994 -398 -1180 -900 -62 -166 -81 -279 -81
-480 0 -144 4 -194 23 -280 121 -564 560 -986 1131 -1086 99 -18 185 -19 1430
-19 1254 0 1330 1 1409 19 279 61 513 187 707 380 201 201 326 431 385 706 32
150 32 410 0 560 -59 276 -185 506 -385 705 -192 191 -404 308 -686 378 -84
21 -100 21 -1375 23 -710 1 -1330 -2 -1378 -6z m2641 -496 c331 -68 586 -306
689 -641 24 -79 27 -103 27 -243 0 -140 -3 -164 -27 -243 -122 -399 -462 -657
-865 -657 -111 0 -187 11 -282 42 -231 74 -421 241 -535 467 -117 235 -117
548 0 783 130 258 359 436 635 493 91 19 265 18 358 -1z"/>
</g>
</svg>
