<?xml version="1.0" standalone="no"?>
<!DOCTYPE svg PUBLIC "-//W3C//DTD SVG 20010904//EN"
 "http://www.w3.org/TR/2001/REC-SVG-20010904/DTD/svg10.dtd">
<svg version="1.0" xmlns="http://www.w3.org/2000/svg"
 width="512.000000pt" height="512.000000pt" viewBox="0 0 512.000000 512.000000"
 preserveAspectRatio="xMidYMid meet">

<g transform="translate(0.000000,512.000000) scale(0.100000,-0.100000)"
fill="#000000" stroke="none">
<path d="M2282 3990 c-395 -28 -802 -109 -1074 -216 -224 -88 -448 -216 -591
-339 -141 -121 -260 -303 -287 -440 -32 -156 35 -357 175 -526 l50 -61 5 264
5 264 38 77 c153 310 699 548 1472 642 208 26 613 31 845 10 817 -71 1434
-323 1596 -651 l39 -78 3 -264 3 -264 26 23 c87 82 177 255 201 389 20 114 8
200 -44 309 -205 434 -852 755 -1704 846 -176 18 -589 27 -758 15z"/>
<path d="M2340 3514 c-25 -2 -101 -8 -170 -14 -484 -42 -932 -170 -1209 -347
-79 -51 -179 -150 -210 -208 -25 -48 -26 -56 -29 -249 l-4 -199 59 52 c261
235 705 394 1303 467 207 26 754 26 960 1 597 -74 1042 -234 1303 -468 l59
-52 -4 199 c-3 193 -4 201 -29 249 -32 59 -131 158 -214 210 -259 166 -674
289 -1150 340 -134 15 -571 27 -665 19z"/>
<path d="M2355 2874 c-412 -30 -665 -74 -929 -160 -293 -96 -514 -229 -621
-375 -57 -77 -80 -145 -79 -235 0 -174 149 -345 420 -484 87 -44 259 -113 313
-125 30 -6 33 -5 29 11 -3 11 -36 123 -72 249 -58 198 -67 237 -61 281 29 239
338 425 830 500 149 23 569 26 710 6 427 -62 725 -203 831 -394 26 -48 29 -62
28 -138 -1 -73 -10 -116 -67 -310 -36 -124 -64 -226 -63 -227 5 -6 202 73 301
121 358 172 517 377 461 596 -22 85 -56 142 -131 216 -220 221 -686 389 -1247
449 -138 14 -550 27 -653 19z m-1255 -689 c79 -41 79 -169 0 -210 -84 -43
-180 13 -180 105 0 92 96 148 180 105z m3040 0 c16 -9 36 -29 45 -45 43 -84
-13 -180 -105 -180 -92 0 -148 96 -105 180 29 55 105 76 165 45z"/>
<path d="M2480 2160 l0 -240 80 0 80 0 0 240 0 240 -80 0 -80 0 0 -240z"/>
<path d="M2220 2375 c-159 -23 -318 -63 -412 -104 l-47 -20 71 -213 c39 -117
71 -214 72 -215 1 -1 37 9 82 22 69 20 173 41 302 61 l32 5 0 239 c0 132 -3
240 -7 239 -5 -1 -46 -7 -93 -14z"/>
<path d="M2800 2151 l0 -240 33 -5 c128 -20 232 -41 301 -61 45 -13 81 -23 82
-22 1 1 33 98 72 215 63 190 69 213 54 221 -74 38 -321 103 -447 116 -33 4
-68 9 -77 11 -17 5 -18 -11 -18 -235z"/>
<path d="M1577 2123 c-66 -65 -67 -86 -12 -285 27 -95 49 -175 51 -177 2 -2
20 10 41 26 21 16 52 38 69 48 l32 18 -66 196 c-35 108 -68 199 -71 204 -4 4
-24 -9 -44 -30z"/>
<path d="M3495 2149 c-20 -55 -125 -375 -125 -384 0 -10 130 -109 135 -103 1
2 23 81 50 176 43 155 47 177 36 210 -17 55 -86 128 -96 101z"/>
<path d="M2365 1743 c-224 -26 -368 -60 -480 -112 -126 -59 -195 -133 -195
-210 0 -105 244 -225 565 -278 152 -25 484 -22 635 5 387 70 596 198 540 331
-44 108 -289 210 -610 256 -95 13 -371 18 -455 8z"/>
</g>
</svg>
