<?xml version="1.0" standalone="no"?>
<!DOCTYPE svg PUBLIC "-//W3C//DTD SVG 20010904//EN"
 "http://www.w3.org/TR/2001/REC-SVG-20010904/DTD/svg10.dtd">
<svg version="1.0" xmlns="http://www.w3.org/2000/svg"
 width="512.000000pt" height="512.000000pt" viewBox="0 0 512.000000 512.000000"
 preserveAspectRatio="xMidYMid meet">

<g transform="translate(0.000000,512.000000) scale(0.100000,-0.100000)"
fill="#000000" stroke="none">
<path d="M2837 3893 c4 -32 0 -45 -23 -73 -38 -46 -1060 -1217 -1092 -1253
l-26 -27 50 -53 c28 -28 94 -103 148 -164 54 -62 100 -113 102 -113 2 0 -50
63 -116 140 -66 77 -120 146 -120 153 0 12 464 546 888 1025 114 128 215 248
225 267 16 29 17 40 7 69 -6 18 -19 41 -30 51 -18 16 -18 15 -13 -22z"/>
<path d="M4130 3708 c0 -4 11 -24 25 -44 68 -100 57 -229 -27 -311 -57 -55
-106 -75 -189 -75 -56 0 -78 5 -120 28 -28 16 -65 44 -81 64 l-30 35 20 -41
c24 -47 90 -110 136 -129 181 -76 386 51 386 239 0 87 -22 144 -75 196 -25 24
-45 41 -45 38z"/>
<path d="M3380 3687 c0 -3 10 -22 21 -42 14 -24 23 -60 27 -105 4 -57 1 -76
-21 -122 -40 -89 -125 -140 -233 -140 -74 -1 -136 25 -188 77 -35 35 -37 35
-23 9 25 -47 79 -96 136 -122 45 -21 64 -24 125 -20 45 3 86 13 112 26 56 29
119 102 134 157 18 64 8 155 -23 208 -23 39 -67 88 -67 74z"/>
<path d="M930 2377 c0 -29 67 -122 176 -247 223 -254 775 -891 897 -1035 l25
-30 441 -3 c298 -2 448 1 461 8 11 6 20 20 20 31 0 15 -223 287 -270 329 -3 3
-111 126 -240 275 -236 271 -367 416 -249 274 35 -42 213 -248 394 -458 182
-210 331 -385 333 -389 1 -4 -204 -6 -455 -5 l-458 2 -519 598 c-285 329 -527
612 -537 628 -10 17 -19 26 -19 22z"/>
<path d="M2060 2130 c34 -38 64 -70 67 -70 3 0 -23 32 -57 70 -34 39 -64 70
-67 70 -3 0 23 -31 57 -70z"/>
</g>
</svg>
