<?xml version="1.0" standalone="no"?>
<!DOCTYPE svg PUBLIC "-//W3C//DTD SVG 20010904//EN"
 "http://www.w3.org/TR/2001/REC-SVG-20010904/DTD/svg10.dtd">
<svg version="1.0" xmlns="http://www.w3.org/2000/svg"
 width="495.000000pt" height="428.000000pt" viewBox="0 0 495.000000 428.000000"
 preserveAspectRatio="xMidYMid meet">

<g transform="translate(0.000000,428.000000) scale(0.100000,-0.100000)"
fill="#000000" stroke="none">
<path d="M1784 4192 c-106 -37 -163 -71 -230 -139 -50 -50 -60 -55 -104 -58
-145 -9 -235 -49 -335 -150 -39 -38 -76 -84 -84 -102 -10 -24 -21 -33 -48 -38
-88 -16 -271 -120 -373 -211 -52 -48 -160 -183 -160 -202 0 -6 -4 -12 -9 -14
-22 -8 -82 -156 -112 -278 -17 -68 -18 -328 -1 -385 11 -38 10 -44 -38 -140
-30 -59 -61 -141 -76 -200 -23 -91 -25 -113 -21 -245 5 -141 19 -218 54 -305
64 -163 194 -335 313 -416 l48 -33 1 -95 c0 -102 10 -166 36 -246 49 -152 171
-317 294 -397 106 -70 247 -125 349 -137 l54 -6 36 -68 c89 -164 256 -267 435
-267 97 0 213 36 296 91 73 48 109 91 150 174 l31 62 0 1853 0 1853 -33 31
c-30 27 -71 46 -183 83 -17 6 -71 11 -120 11 -74 1 -103 -3 -170 -26z m279
-107 c32 -8 69 -22 82 -31 l25 -16 0 -1813 c0 -1179 -3 -1823 -10 -1840 -15
-39 -66 -99 -114 -134 -70 -49 -129 -66 -236 -65 -87 0 -100 3 -156 31 -83 43
-165 133 -188 206 -22 70 -42 88 -97 88 -70 1 -204 36 -277 74 -157 81 -275
218 -333 385 -25 74 -40 213 -30 286 9 64 2 89 -29 99 -11 3 -20 11 -20 16 0
5 -5 9 -11 9 -6 0 -26 12 -43 28 -18 15 -44 36 -58 47 -47 38 -138 159 -172
229 -72 149 -80 184 -80 366 -1 193 10 238 99 406 l54 101 -15 49 c-22 71 -29
238 -15 328 27 167 105 319 226 441 97 98 202 163 327 205 108 35 111 37 128
70 76 151 221 240 365 225 66 -7 57 -12 135 77 107 122 284 175 443 133z"/>
<path d="M1410 3597 c-154 -43 -254 -203 -219 -350 26 -111 79 -181 169 -221
l60 -27 0 -305 0 -304 -85 0 c-84 0 -85 0 -91 28 -15 59 -87 142 -154 175 -37
18 -62 22 -136 22 -83 0 -95 -3 -135 -29 -93 -60 -140 -130 -154 -226 -16
-113 53 -242 160 -298 43 -23 63 -27 135 -27 63 0 95 5 122 19 66 32 123 91
152 155 l27 61 200 0 199 0 0 -165 c0 -165 0 -165 -23 -165 -24 0 -84 -36
-130 -79 -69 -63 -100 -196 -69 -296 24 -80 128 -183 198 -197 17 -3 19 -15
22 -126 3 -121 3 -122 -20 -122 -51 0 -150 -83 -183 -155 -33 -70 -39 -129
-21 -198 24 -90 73 -154 151 -195 43 -23 62 -27 140 -27 78 0 95 3 129 25 100
62 150 134 162 234 17 141 -71 270 -218 319 -16 6 -18 21 -18 127 0 118 0 120
23 120 48 0 147 82 183 152 85 166 -1 358 -188 421 -16 6 -18 24 -18 189 0
150 -3 188 -16 206 -26 38 -67 52 -149 52 l-75 0 2 307 3 306 45 15 c70 23
152 113 173 189 34 120 14 212 -65 299 -78 85 -187 120 -288 91z m146 -128
c11 -4 35 -21 52 -38 111 -111 30 -311 -126 -311 -151 0 -232 178 -135 297 49
62 130 82 209 52z m-501 -992 c75 -42 106 -147 65 -226 -38 -76 -104 -110
-191 -98 -75 10 -148 94 -149 170 0 36 25 95 53 126 51 55 152 68 222 28z
m772 -683 c91 -73 96 -192 11 -271 -47 -44 -132 -56 -193 -28 -108 52 -135
184 -58 276 38 45 78 60 145 56 46 -3 65 -9 95 -33z m-29 -798 c120 -63 135
-204 32 -301 -29 -28 -37 -30 -104 -30 -64 0 -77 3 -110 29 -41 31 -75 94 -76
139 0 62 49 138 105 163 40 18 119 18 153 0z"/>
<path d="M2720 4211 c-8 -4 -33 -12 -54 -16 -47 -8 -132 -49 -163 -78 l-23
-20 0 -1850 0 -1850 35 -73 c62 -129 153 -202 305 -245 123 -36 260 -20 380
42 50 26 180 151 180 173 0 7 7 19 15 26 8 7 15 21 15 31 0 27 28 49 64 49 49
0 172 33 241 65 94 43 164 96 251 188 136 143 204 315 206 517 l1 106 48 33
c63 43 178 165 221 233 70 111 138 281 138 344 0 18 4 35 9 38 16 10 13 217
-4 286 -31 129 -48 177 -96 269 -27 51 -46 97 -43 102 12 20 33 228 28 279
-26 251 -114 442 -278 605 -119 118 -275 210 -406 239 -17 3 -39 26 -68 70
-87 132 -230 215 -380 218 -56 1 -59 3 -125 65 -68 64 -170 123 -249 144 -54
15 -228 22 -248 10z m192 -122 c95 -20 171 -65 248 -146 l70 -75 53 6 c64 8
130 -6 208 -45 64 -32 117 -87 154 -158 28 -56 41 -66 110 -81 43 -10 150 -57
213 -94 106 -62 243 -216 300 -335 48 -103 50 -109 62 -166 30 -139 30 -229
-1 -391 -12 -61 -12 -61 23 -120 81 -135 128 -287 128 -417 0 -133 -48 -321
-102 -399 -10 -14 -18 -29 -18 -33 0 -4 -25 -39 -55 -77 -55 -72 -131 -143
-195 -183 -56 -35 -58 -40 -58 -175 0 -139 -13 -202 -64 -310 -104 -218 -308
-356 -553 -376 -44 -4 -86 -11 -93 -17 -7 -5 -19 -34 -28 -63 -25 -88 -100
-171 -204 -225 -39 -21 -59 -24 -150 -24 -93 1 -112 4 -163 28 -85 39 -130 78
-165 145 l-32 60 0 1811 0 1810 33 17 c78 41 181 53 279 33z"/>
<path d="M3212 3590 c-143 -48 -235 -204 -203 -344 27 -123 96 -200 214 -239
16 -6 17 -30 17 -312 l0 -305 -67 -1 c-159 -1 -173 -23 -173 -267 0 -156 -2
-173 -17 -178 -96 -30 -161 -82 -201 -158 -36 -70 -38 -190 -4 -254 38 -71 87
-118 158 -148 l65 -29 -3 -114 -3 -114 -48 -15 c-62 -20 -131 -81 -164 -146
-37 -70 -39 -190 -5 -254 37 -69 87 -117 153 -147 55 -24 71 -27 138 -23 205
12 335 194 275 384 -24 77 -106 161 -182 188 l-53 18 3 115 3 116 48 15 c62
20 131 81 164 146 37 70 39 190 5 254 -36 68 -87 117 -152 146 l-61 27 3 157
3 157 203 3 c157 2 203 0 206 -10 3 -7 7 -25 10 -40 8 -36 99 -134 150 -161
60 -32 193 -31 256 1 181 95 225 318 90 465 -71 78 -129 101 -238 94 -68 -4
-90 -10 -125 -32 -78 -51 -112 -94 -140 -177 -5 -15 -19 -18 -92 -18 l-85 0 0
310 c0 272 2 310 15 310 9 0 37 11 64 24 126 64 189 221 145 362 -14 47 -30
72 -78 120 -51 50 -71 63 -122 77 -75 21 -105 21 -172 -3z m168 -125 c63 -33
105 -108 97 -176 -8 -63 -29 -102 -74 -136 -31 -24 -46 -28 -103 -28 -57 0
-72 4 -102 27 -37 28 -78 102 -78 140 0 138 142 232 260 173z m535 -988 c76
-42 105 -144 65 -232 -27 -59 -67 -86 -138 -92 -100 -9 -169 40 -192 137 -10
43 -10 56 5 93 32 81 84 116 170 116 34 1 63 -7 90 -22z m-756 -678 c147 -106
74 -319 -110 -319 -47 0 -63 5 -98 31 -147 106 -74 319 110 319 47 0 63 -5 98
-31z m-3 -818 c61 -44 78 -76 79 -148 0 -53 -4 -66 -30 -99 -41 -50 -89 -74
-150 -74 -62 0 -109 23 -149 73 -27 34 -31 47 -31 102 0 55 4 68 30 101 43 52
88 74 156 74 46 0 63 -5 95 -29z"/>
</g>
</svg>
