<svg id="svg" version="1.1" xmlns="http://www.w3.org/2000/svg" xmlns:xlink="http://www.w3.org/1999/xlink" width="400"
     height="400" viewBox="0, 0, 400,400">
    <g id="svgg" fill="#219eb3">
        <path id="path1"
              d="M154.340 94.688 C 152.285 97.059,150.130 99.540,149.552 100.200 C 147.615 102.410,142.223 108.604,140.000 111.170 C 138.790 112.567,137.618 113.910,137.396 114.155 C 137.174 114.400,133.940 118.110,130.209 122.400 C 126.478 126.690,120.830 133.170,117.658 136.800 C 114.485 140.430,110.879 144.556,109.645 145.969 C 108.410 147.382,107.220 148.737,107.000 148.979 C 106.780 149.221,105.615 150.585,104.410 152.010 C 103.206 153.434,102.123 154.690,102.004 154.800 C 101.885 154.910,100.144 156.890,98.135 159.200 C 96.126 161.510,92.993 165.110,91.174 167.200 C 89.355 169.290,86.927 172.080,85.778 173.400 C 84.629 174.720,82.117 177.600,80.195 179.800 C 75.724 184.917,73.623 188.044,72.402 191.400 C 68.289 202.704,70.858 213.144,80.274 223.400 C 80.679 223.840,83.257 226.809,86.005 229.999 C 88.752 233.188,91.567 236.428,92.260 237.199 C 93.533 238.614,95.102 240.427,110.984 258.825 C 115.815 264.421,119.872 269.090,120.001 269.200 C 120.129 269.310,123.635 273.360,127.792 278.200 C 131.949 283.040,136.082 287.818,136.975 288.818 C 137.869 289.818,139.052 291.168,139.604 291.818 C 142.762 295.535,153.557 307.927,155.879 310.500 L 157.232 312.000 192.416 312.000 C 211.767 312.000,227.600 311.849,227.600 311.664 C 227.600 311.312,226.090 309.431,223.379 306.408 C 222.488 305.413,221.138 303.866,220.379 302.970 C 217.398 299.445,196.628 275.388,196.404 275.200 C 196.273 275.090,192.760 271.040,188.597 266.200 C 184.434 261.360,180.926 257.310,180.803 257.200 C 180.680 257.090,179.594 255.830,178.390 254.400 C 177.185 252.970,176.101 251.710,175.980 251.600 C 175.859 251.490,171.816 246.810,166.995 241.200 C 162.174 235.590,158.132 230.910,158.014 230.800 C 157.895 230.690,156.179 228.711,154.199 226.403 C 152.220 224.094,150.040 221.574,149.357 220.803 C 147.262 218.439,137.533 207.164,135.082 204.259 C 133.091 201.899,132.841 201.427,133.285 200.861 C 133.806 200.195,144.419 187.969,144.797 187.600 C 144.909 187.490,146.171 186.053,147.600 184.406 C 149.030 182.760,150.676 180.870,151.257 180.206 C 151.839 179.543,155.059 175.850,158.413 172.000 C 161.767 168.150,165.071 164.369,165.756 163.597 C 167.493 161.637,173.406 154.877,184.818 141.800 C 190.194 135.640,195.156 129.970,195.844 129.200 C 196.532 128.430,199.751 124.740,202.997 121.000 C 206.243 117.260,209.461 113.568,210.149 112.797 C 210.837 112.025,212.570 110.045,214.000 108.397 C 215.430 106.749,216.780 105.201,217.000 104.956 C 221.881 99.528,222.689 97.191,220.769 94.042 C 218.527 90.365,220.866 90.615,187.539 90.488 L 158.078 90.375 154.340 94.688 M243.600 106.000 C 243.270 106.213,242.683 106.391,242.296 106.394 C 241.238 106.403,238.008 107.983,236.207 109.372 C 221.397 120.789,229.310 144.056,248.000 144.050 C 271.529 144.042,275.676 112.233,252.954 106.048 C 250.940 105.500,244.426 105.466,243.600 106.000 M302.480 106.220 C 280.680 113.075,285.559 144.250,308.400 144.052 C 330.760 143.859,335.556 113.731,314.368 106.562 C 311.084 105.452,305.441 105.289,302.480 106.220 "
              stroke="none" fill="#fa9304"></path>
        <path id="path3"
              d="M222.012 96.905 C 221.996 99.463,221.477 100.364,217.332 105.043 C 215.989 106.559,213.403 109.510,211.587 111.600 C 209.771 113.690,207.726 116.032,207.042 116.803 C 206.359 117.575,204.630 119.552,203.200 121.197 C 201.770 122.842,200.124 124.730,199.543 125.394 C 197.777 127.408,186.420 140.428,184.035 143.172 C 182.806 144.586,179.733 148.096,177.206 150.972 C 174.680 153.847,172.160 156.726,171.606 157.368 C 170.267 158.923,165.950 163.872,160.587 170.000 C 158.181 172.750,155.824 175.450,155.350 176.000 C 152.412 179.407,147.670 184.837,146.442 186.201 C 145.649 187.081,143.830 189.151,142.400 190.800 C 140.970 192.449,139.620 193.999,139.400 194.244 C 138.042 195.757,134.485 199.893,133.874 200.669 C 133.154 201.584,133.163 201.607,134.980 203.496 C 135.988 204.543,136.705 205.099,136.575 204.731 C 136.221 203.731,136.793 202.905,141.855 197.109 C 144.405 194.189,148.687 189.280,151.371 186.200 C 162.260 173.703,204.392 125.543,212.575 116.240 C 224.923 102.201,225.635 100.861,223.010 96.600 L 222.025 95.000 222.012 96.905 M267.513 118.100 C 268.331 120.344,268.428 128.810,267.659 130.800 C 262.691 143.651,247.756 148.584,236.500 141.093 C 234.119 139.508,234.428 140.240,237.096 142.505 C 253.730 156.625,277.842 138.869,268.608 119.300 C 267.084 116.070,266.567 115.504,267.513 118.100 M326.800 116.920 C 326.800 117.206,326.961 117.611,327.157 117.820 C 330.149 121.002,328.013 132.713,323.504 137.849 C 318.890 143.103,307.789 146.048,301.600 143.660 C 298.528 142.474,294.992 140.422,294.306 139.426 C 294.105 139.135,294.010 139.148,294.006 139.468 C 294.003 139.725,295.114 140.928,296.476 142.141 C 312.096 156.056,335.944 141.466,329.723 121.800 C 328.786 118.836,326.800 115.521,326.800 116.920 M78.410 222.286 C 78.415 222.459,79.360 223.600,80.510 224.822 C 82.541 226.982,82.299 226.594,79.677 223.486 C 78.975 222.653,78.404 222.113,78.410 222.286 M85.600 230.925 C 85.600 230.994,86.185 231.579,86.900 232.225 L 88.200 233.400 87.025 232.100 C 85.930 230.888,85.600 230.616,85.600 230.925 M94.000 240.264 C 94.000 240.482,94.495 241.097,95.100 241.630 L 96.200 242.600 95.200 241.400 C 94.650 240.740,94.155 240.125,94.100 240.033 C 94.045 239.942,94.000 240.045,94.000 240.264 M96.000 242.925 C 96.000 242.994,96.585 243.579,97.300 244.225 L 98.600 245.400 97.425 244.100 C 96.330 242.888,96.000 242.616,96.000 242.925 M101.200 248.925 C 101.200 248.994,101.785 249.579,102.500 250.225 L 103.800 251.400 102.625 250.100 C 101.530 248.888,101.200 248.616,101.200 248.925 M114.400 263.864 C 114.400 264.082,114.895 264.697,115.500 265.230 L 116.600 266.200 115.600 265.000 C 115.050 264.340,114.555 263.725,114.500 263.633 C 114.445 263.542,114.400 263.645,114.400 263.864 M116.800 266.925 C 116.800 266.994,117.385 267.579,118.100 268.225 L 119.400 269.400 118.225 268.100 C 117.130 266.888,116.800 266.616,116.800 266.925 M128.000 279.725 C 128.000 279.794,128.585 280.379,129.300 281.025 L 130.600 282.200 129.425 280.900 C 128.330 279.688,128.000 279.416,128.000 279.725 M136.434 289.447 C 136.965 290.133,137.480 290.623,137.579 290.535 C 137.677 290.447,137.243 289.886,136.613 289.288 L 135.469 288.200 136.434 289.447 M140.400 294.125 C 140.400 294.194,140.978 294.779,141.685 295.425 C 142.823 296.466,142.578 295.830,141.329 294.502 C 140.890 294.035,140.400 293.836,140.400 294.125 M145.600 299.864 C 145.600 300.082,146.095 300.697,146.700 301.230 L 147.800 302.200 146.800 301.000 C 146.250 300.340,145.755 299.725,145.700 299.633 C 145.645 299.542,145.600 299.645,145.600 299.864 M149.424 304.374 C 150.098 305.158,151.223 306.481,151.924 307.314 C 152.626 308.147,153.198 308.687,153.197 308.514 C 153.195 308.341,152.070 307.018,150.697 305.574 C 149.323 304.129,148.751 303.589,149.424 304.374 M228.398 311.905 C 228.195 312.414,157.384 312.717,156.877 312.211 C 156.761 312.095,156.487 312.000,156.267 312.000 C 155.450 312.000,159.051 314.798,160.400 315.211 C 162.400 315.823,227.785 315.575,228.407 314.953 C 228.653 314.707,228.797 313.807,228.727 312.953 C 228.657 312.099,228.509 311.627,228.398 311.905 "
              stroke="none" fill="#156672"></path>
        <path id="path4"
              d="M186.267 90.000 L 157.534 90.200 156.312 91.600 C 155.639 92.370,154.614 93.540,154.033 94.200 C 153.452 94.860,151.116 97.560,148.842 100.200 C 146.568 102.840,143.603 106.252,142.254 107.783 C 140.904 109.314,139.175 111.294,138.412 112.183 C 137.649 113.072,136.209 114.707,135.212 115.815 C 134.215 116.923,132.950 118.363,132.400 119.015 C 129.765 122.138,126.845 125.521,125.355 127.174 C 124.450 128.178,122.223 130.710,120.406 132.800 C 118.590 134.890,116.159 137.680,115.005 139.000 C 113.850 140.320,112.391 142.030,111.761 142.800 C 111.131 143.570,110.337 144.470,109.997 144.800 C 109.656 145.130,107.675 147.380,105.594 149.800 C 103.513 152.220,101.628 154.397,101.405 154.639 C 100.422 155.703,96.402 160.326,95.353 161.599 C 94.719 162.369,93.840 163.372,93.400 163.827 C 92.960 164.283,91.851 165.544,90.935 166.628 C 88.733 169.235,87.793 170.318,86.269 172.003 C 85.571 172.774,83.380 175.293,81.400 177.599 C 79.420 179.906,77.467 182.155,77.060 182.597 C 71.626 188.499,68.552 199.797,70.433 206.954 C 71.751 211.968,73.121 215.600,73.694 215.600 C 73.862 215.600,74.000 215.793,74.000 216.028 C 74.000 216.613,76.327 219.975,77.580 221.200 C 78.143 221.750,79.591 223.370,80.799 224.800 C 82.007 226.230,83.086 227.490,83.198 227.600 C 83.309 227.710,84.479 229.060,85.798 230.600 C 87.117 232.140,88.377 233.595,88.598 233.834 C 88.819 234.072,89.810 235.230,90.800 236.406 C 91.790 237.582,92.960 238.923,93.400 239.387 C 94.093 240.117,95.520 241.772,99.104 246.000 C 100.920 248.142,101.709 249.052,102.931 250.413 C 103.629 251.190,105.185 252.990,106.389 254.413 C 107.592 255.836,108.852 257.270,109.189 257.601 C 109.525 257.931,110.790 259.371,112.000 260.800 C 115.874 265.377,116.172 265.726,117.800 267.571 C 118.680 268.569,119.580 269.584,119.800 269.826 C 120.020 270.069,121.010 271.231,122.000 272.408 C 122.990 273.586,124.340 275.104,125.000 275.783 C 125.660 276.461,126.650 277.581,127.200 278.270 C 128.709 280.163,132.312 284.397,133.948 286.200 C 134.747 287.080,136.389 288.970,137.599 290.400 C 138.808 291.830,140.256 293.450,140.817 294.000 C 141.378 294.550,142.099 295.376,142.419 295.835 C 143.058 296.753,146.381 300.639,149.217 303.785 C 150.216 304.893,152.012 306.970,153.207 308.400 C 154.402 309.830,155.754 311.320,156.211 311.711 C 157.420 312.745,228.115 312.817,228.334 311.783 C 228.408 311.436,228.134 310.848,227.727 310.476 C 227.319 310.104,226.179 308.816,225.193 307.614 C 224.207 306.412,222.918 304.882,222.330 304.214 C 221.741 303.546,219.781 301.290,217.972 299.200 C 216.164 297.110,214.126 294.764,213.442 293.987 C 212.331 292.724,209.612 289.543,206.800 286.218 C 206.250 285.568,205.075 284.218,204.189 283.218 C 203.303 282.218,201.506 280.140,200.195 278.600 C 198.884 277.060,197.719 275.710,197.606 275.600 C 197.353 275.354,192.575 269.851,191.200 268.221 C 190.650 267.569,189.472 266.218,188.581 265.218 C 187.691 264.218,186.456 262.770,185.837 262.000 C 185.218 261.230,184.057 259.875,183.256 258.990 C 182.455 258.104,180.810 256.214,179.600 254.790 C 177.154 251.910,175.605 250.114,174.994 249.444 C 174.771 249.200,173.601 247.830,172.394 246.400 C 171.187 244.970,170.102 243.710,169.983 243.600 C 169.791 243.423,163.436 236.118,160.800 233.044 C 160.250 232.402,159.440 231.499,159.000 231.037 C 158.560 230.575,157.390 229.209,156.400 228.000 C 155.410 226.791,154.240 225.424,153.800 224.960 C 153.360 224.497,152.640 223.682,152.200 223.150 C 151.489 222.289,148.882 219.217,146.000 215.843 C 145.450 215.199,144.460 214.114,143.800 213.432 C 143.140 212.750,141.793 211.204,140.807 209.996 C 139.821 208.788,138.741 207.528,138.407 207.195 C 138.073 206.862,136.752 205.467,135.471 204.094 L 133.143 201.599 134.004 200.500 C 134.477 199.895,135.510 198.680,136.299 197.800 C 138.839 194.967,139.070 194.470,136.684 196.972 C 135.411 198.307,134.013 199.882,133.578 200.470 L 132.788 201.540 135.091 204.270 C 137.534 207.166,147.265 218.443,149.357 220.803 C 150.040 221.574,152.220 224.094,154.199 226.403 C 156.179 228.711,157.895 230.690,158.014 230.800 C 158.132 230.910,162.174 235.590,166.995 241.200 C 171.816 246.810,175.859 251.490,175.980 251.600 C 176.101 251.710,177.185 252.970,178.390 254.400 C 179.594 255.830,180.680 257.090,180.803 257.200 C 180.926 257.310,184.434 261.360,188.597 266.200 C 192.760 271.040,196.273 275.090,196.404 275.200 C 196.628 275.388,217.398 299.445,220.379 302.970 C 221.138 303.866,222.488 305.413,223.379 306.408 C 226.090 309.431,227.600 311.312,227.600 311.664 C 227.600 311.849,211.767 312.000,192.416 312.000 L 157.232 312.000 155.879 310.500 C 153.557 307.927,142.762 295.535,139.604 291.818 C 139.052 291.168,137.869 289.818,136.975 288.818 C 136.082 287.818,131.949 283.040,127.792 278.200 C 123.635 273.360,120.129 269.310,120.001 269.200 C 119.872 269.090,115.815 264.421,110.984 258.825 C 95.102 240.427,93.533 238.614,92.260 237.199 C 91.567 236.428,88.752 233.188,86.005 229.999 C 83.257 226.809,80.679 223.840,80.274 223.400 C 70.858 213.144,68.289 202.704,72.402 191.400 C 73.623 188.044,75.724 184.917,80.195 179.800 C 82.117 177.600,84.629 174.720,85.778 173.400 C 86.927 172.080,89.355 169.290,91.174 167.200 C 92.993 165.110,96.126 161.510,98.135 159.200 C 100.144 156.890,101.885 154.910,102.004 154.800 C 102.123 154.690,103.206 153.434,104.410 152.010 C 105.615 150.585,106.780 149.221,107.000 148.979 C 107.220 148.737,108.410 147.382,109.645 145.969 C 110.879 144.556,114.485 140.430,117.658 136.800 C 120.830 133.170,126.478 126.690,130.209 122.400 C 133.940 118.110,137.174 114.400,137.396 114.155 C 137.618 113.910,138.790 112.567,140.000 111.170 C 142.223 108.604,147.615 102.410,149.552 100.200 C 150.130 99.540,152.285 97.059,154.340 94.688 L 158.078 90.375 187.539 90.488 C 219.016 90.608,217.954 90.539,219.738 92.563 C 221.141 94.154,221.674 95.651,221.535 97.611 C 221.461 98.664,221.535 99.441,221.700 99.339 C 222.175 99.044,222.049 94.839,221.536 93.874 C 219.338 89.740,219.597 89.768,186.267 90.000 M220.800 100.237 C 220.800 100.441,220.320 101.146,219.733 101.804 C 219.146 102.462,218.291 103.449,217.833 103.997 L 217.000 104.994 217.944 104.197 C 219.345 103.014,221.333 100.400,221.048 100.115 C 220.912 99.978,220.800 100.034,220.800 100.237 M242.200 105.702 C 224.691 111.792,222.772 135.442,239.200 142.661 C 241.571 143.703,242.490 143.999,243.319 143.990 C 243.803 143.984,243.004 143.572,241.542 143.074 C 228.514 138.633,224.244 122.301,233.407 111.961 C 243.481 100.594,262.755 104.973,267.380 119.680 C 267.728 120.788,267.935 121.085,267.960 120.514 C 268.368 111.384,252.348 102.173,242.200 105.702 M302.200 105.702 C 299.944 106.487,296.926 107.997,295.963 108.823 C 295.433 109.277,294.640 109.963,294.200 110.348 C 286.097 117.437,285.709 130.934,293.387 138.613 C 296.176 141.401,301.764 144.322,303.468 143.882 C 304.025 143.738,303.971 143.682,303.242 143.646 C 301.343 143.554,296.516 140.845,294.255 138.602 C 281.762 126.209,290.375 105.626,308.062 105.604 C 319.934 105.589,328.692 114.908,327.908 126.721 C 327.795 128.420,327.842 129.352,328.012 128.800 C 328.737 126.448,328.296 120.213,327.234 117.800 C 327.040 117.360,326.566 116.280,326.181 115.400 C 324.669 111.946,319.614 107.937,313.881 105.647 C 312.491 105.092,303.838 105.133,302.200 105.702 M213.749 108.682 C 212.457 110.157,211.606 111.237,211.859 111.083 C 212.424 110.739,216.553 106.000,216.288 106.000 C 216.184 106.000,215.041 107.207,213.749 108.682 M208.278 114.869 C 206.781 116.591,205.701 117.986,205.878 117.970 C 206.259 117.934,211.358 112.008,211.145 111.848 C 211.065 111.788,209.775 113.148,208.278 114.869 M204.175 119.700 L 203.000 121.000 204.300 119.825 C 205.015 119.179,205.600 118.594,205.600 118.525 C 205.600 118.216,205.270 118.488,204.175 119.700 M201.400 122.800 C 200.541 123.680,200.009 124.385,200.219 124.366 C 200.586 124.334,203.465 121.200,203.128 121.200 C 203.037 121.200,202.259 121.920,201.400 122.800 M268.134 124.800 C 268.134 126.450,268.205 127.125,268.291 126.300 C 268.378 125.475,268.378 124.125,268.291 123.300 C 268.205 122.475,268.134 123.150,268.134 124.800 M197.349 127.482 C 196.057 128.957,195.206 130.037,195.459 129.883 C 196.024 129.539,200.153 124.800,199.888 124.800 C 199.784 124.800,198.641 126.007,197.349 127.482 M267.429 129.829 C 267.281 130.415,267.251 130.984,267.361 131.094 C 267.471 131.204,267.681 130.815,267.829 130.229 C 267.976 129.642,268.006 129.073,267.896 128.963 C 267.786 128.853,267.576 129.242,267.429 129.829 M191.878 133.669 C 190.381 135.391,189.240 136.800,189.342 136.800 C 189.636 136.800,194.933 130.795,194.757 130.660 C 194.671 130.593,193.375 131.948,191.878 133.669 M262.679 138.068 C 261.183 139.617,260.463 140.521,261.079 140.077 C 262.167 139.293,264.095 137.325,265.170 135.900 C 266.156 134.593,265.407 135.245,262.679 138.068 M322.429 138.314 C 321.015 139.767,320.385 140.577,321.029 140.114 C 322.154 139.306,323.651 137.779,324.769 136.300 C 325.714 135.050,325.050 135.621,322.429 138.314 M186.273 140.100 C 184.839 141.695,183.742 143.075,183.833 143.167 C 183.925 143.258,184.052 143.258,184.116 143.167 C 184.179 143.075,185.368 141.695,186.757 140.100 C 188.146 138.505,189.192 137.200,189.081 137.200 C 188.970 137.200,187.706 138.505,186.273 140.100 M318.200 141.600 C 317.540 142.037,317.180 142.392,317.400 142.388 C 317.801 142.382,319.976 140.823,319.600 140.812 C 319.490 140.808,318.860 141.163,318.200 141.600 M256.600 142.422 C 255.720 142.838,255.234 143.184,255.520 143.190 C 256.102 143.201,258.400 142.084,258.400 141.790 C 258.400 141.556,258.518 141.514,256.600 142.422 M253.791 143.435 C 253.566 143.529,252.306 143.778,250.991 143.988 L 248.600 144.370 251.130 144.188 C 252.522 144.088,253.962 143.830,254.330 143.615 C 254.988 143.231,254.593 143.099,253.791 143.435 M179.156 148.300 C 176.907 150.885,174.521 153.585,173.855 154.300 C 173.188 155.015,172.755 155.600,172.891 155.600 C 173.028 155.600,175.072 153.395,177.433 150.700 C 179.794 148.005,182.181 145.305,182.738 144.700 C 183.294 144.095,183.637 143.600,183.498 143.600 C 183.360 143.600,181.406 145.715,179.156 148.300 M245.100 144.282 C 245.595 144.378,246.405 144.378,246.900 144.282 C 247.395 144.187,246.990 144.109,246.000 144.109 C 245.010 144.109,244.605 144.187,245.100 144.282 M305.100 144.282 C 305.595 144.378,306.405 144.378,306.900 144.282 C 307.395 144.187,306.990 144.109,306.000 144.109 C 305.010 144.109,304.605 144.187,305.100 144.282 M309.100 144.282 C 309.595 144.378,310.405 144.378,310.900 144.282 C 311.395 144.187,310.990 144.109,310.000 144.109 C 309.010 144.109,308.605 144.187,309.100 144.282 M169.363 159.500 C 168.078 160.985,167.446 161.840,167.958 161.400 C 169.024 160.484,172.170 156.800,171.886 156.800 C 171.782 156.800,170.647 158.015,169.363 159.500 M166.333 162.759 C 166.260 162.957,163.905 165.736,161.100 168.934 C 158.295 172.132,156.000 174.843,156.000 174.957 C 156.000 175.222,158.382 172.611,163.353 166.900 C 165.507 164.425,167.088 162.400,166.868 162.400 C 166.647 162.400,166.407 162.562,166.333 162.759 M154.173 176.900 C 151.585 179.743,150.576 181.008,151.545 180.194 C 152.539 179.358,155.788 175.600,155.516 175.600 C 155.428 175.600,154.824 176.185,154.173 176.900 M147.655 184.251 C 146.255 185.897,145.175 187.295,145.255 187.358 C 145.335 187.421,146.631 186.062,148.136 184.337 C 149.640 182.611,150.720 181.214,150.536 181.230 C 150.351 181.247,149.055 182.606,147.655 184.251 M141.878 190.869 C 140.381 192.591,139.301 193.986,139.478 193.970 C 139.859 193.934,144.958 188.008,144.745 187.848 C 144.665 187.788,143.375 189.148,141.878 190.869 "
              stroke="none" fill="#72986c"></path>
    </g>
</svg>