<?xml version="1.0" standalone="no"?>
<!DOCTYPE svg PUBLIC "-//W3C//DTD SVG 20010904//EN"
 "http://www.w3.org/TR/2001/REC-SVG-20010904/DTD/svg10.dtd">
<svg version="1.0" xmlns="http://www.w3.org/2000/svg"
 width="512.000000pt" height="512.000000pt" viewBox="0 0 512.000000 512.000000"
 preserveAspectRatio="xMidYMid meet">

<g transform="translate(0.000000,512.000000) scale(0.100000,-0.100000)"
fill="#000000" stroke="none">
<path d="M1039 5093 c-35 -18 -64 -43 -84 -71 -29 -43 -30 -47 -33 -182 l-3
-137 -167 -5 c-139 -4 -176 -9 -222 -27 -101 -39 -181 -119 -222 -219 l-23
-57 0 -1665 0 -1665 23 -58 c51 -126 177 -219 321 -238 36 -4 260 -8 496 -9
l430 0 70 -107 c168 -256 439 -467 738 -572 166 -58 271 -75 472 -75 200 1
310 18 480 76 420 144 757 485 903 913 75 222 81 314 82 1238 l0 747 48 0
c117 0 221 64 268 165 23 48 24 60 24 288 l0 237 50 0 c28 0 66 6 85 14 55 23
65 55 65 215 0 77 -4 151 -10 165 -18 49 -64 66 -172 66 l-98 0 0 223 c0 192
-2 227 -18 256 -28 57 -63 75 -149 79 -92 5 -139 -8 -178 -48 l-30 -31 -3
-240 -3 -239 -120 0 -119 0 0 229 c0 220 -1 229 -23 262 -33 50 -78 69 -167
69 -89 0 -134 -19 -167 -69 -22 -33 -23 -42 -23 -262 l0 -229 -85 0 c-107 0
-150 -16 -170 -64 -21 -49 -21 -283 0 -332 16 -39 62 -64 119 -64 l34 0 4
-237 c3 -217 5 -242 25 -285 46 -101 155 -168 274 -168 l60 0 -3 -852 -4 -853
-22 -75 c-93 -302 -298 -535 -576 -651 -131 -54 -227 -72 -381 -72 -147 0
-252 20 -383 75 -84 35 -230 129 -276 177 l-30 31 195 0 c234 1 307 9 388 45
78 36 160 121 193 202 l23 58 3 1630 c2 1190 0 1646 -8 1690 -31 159 -154 279
-316 305 -32 6 -116 10 -186 10 l-126 0 -4 139 c-3 136 -4 140 -33 183 -20 28
-49 53 -84 71 l-55 27 -521 0 -521 0 -55 -27z m1471 -958 l0 -115 -895 0 -895
0 0 115 0 115 895 0 895 0 0 -115z"/>
</g>
</svg>
