<?xml version="1.0" standalone="no"?>
<!DOCTYPE svg PUBLIC "-//W3C//DTD SVG 20010904//EN"
 "http://www.w3.org/TR/2001/REC-SVG-20010904/DTD/svg10.dtd">
<svg version="1.0" xmlns="http://www.w3.org/2000/svg"
 width="256.000000pt" height="256.000000pt" viewBox="0 0 256.000000 256.000000"
 preserveAspectRatio="xMidYMid meet">

<g transform="translate(0.000000,256.000000) scale(0.100000,-0.100000)"
fill="#000000" stroke="none">
<path d="M1765 2509 c-27 -6 -86 -28 -131 -49 -163 -78 -280 -239 -306 -419
l-12 -81 -494 0 c-359 0 -506 -3 -536 -12 -55 -16 -138 -99 -154 -154 -17 -59
-17 -1529 0 -1588 16 -55 99 -138 154 -154 31 -9 233 -12 796 -12 859 0 816
-4 891 80 24 26 49 66 55 88 9 28 12 202 12 628 l0 589 48 17 c98 35 196 117
263 221 114 176 114 418 0 595 -104 160 -259 250 -446 257 -49 2 -112 0 -140
-6z m230 -84 c238 -62 393 -291 358 -531 -30 -212 -196 -377 -409 -407 -329
-48 -612 266 -529 586 67 258 329 417 580 352z m-665 -564 c0 -10 7 -37 15
-60 l14 -41 -574 0 c-428 0 -575 3 -575 12 0 21 48 75 82 91 29 15 91 17 536
17 484 0 502 -1 502 -19z m92 -221 l26 -39 -513 -3 c-501 -3 -514 -4 -541 -24
-15 -11 -37 -33 -48 -48 -21 -27 -21 -38 -21 -526 0 -488 0 -499 21 -526 11
-15 33 -37 48 -48 27 -21 36 -21 686 -21 650 0 659 0 686 21 15 11 37 33 48
48 20 27 21 41 24 476 l3 448 59 4 60 3 0 -542 0 -543 -880 0 -880 0 0 680 0
680 598 0 598 0 26 -40z m156 -151 c28 -17 79 -41 114 -54 l63 -23 3 -441 2
-442 -24 -24 -25 -25 -631 0 -631 0 -24 25 -25 24 0 471 0 471 25 24 24 25
540 0 540 0 49 -31z m372 -1261 c0 -21 -49 -75 -83 -92 -32 -14 -111 -16 -787
-16 -676 0 -755 2 -787 16 -34 17 -83 71 -83 92 0 9 219 12 870 12 651 0 870
-3 870 -12z"/>
<path d="M1750 2264 c-82 -17 -194 -72 -250 -122 l-43 -38 28 -26 28 -26 45
35 c196 149 448 149 644 0 l45 -35 28 26 28 26 -43 38 c-125 111 -332 161
-510 122z"/>
<path d="M1773 2105 c-61 -17 -135 -54 -176 -88 l-29 -24 27 -27 c31 -31 37
-32 59 -7 9 10 45 32 79 47 53 25 75 29 147 29 72 0 94 -4 147 -29 34 -15 70
-37 79 -47 22 -25 28 -24 59 7 l27 27 -29 24 c-104 87 -261 122 -390 88z"/>
<path d="M1793 1946 c-50 -16 -103 -52 -103 -70 0 -7 9 -21 21 -31 20 -19 21
-18 65 5 62 35 146 34 209 0 l45 -25 22 23 c29 29 18 48 -47 81 -59 29 -152
37 -212 17z"/>
<path d="M1835 1791 c-45 -20 -70 -60 -70 -112 0 -42 5 -53 33 -81 28 -28 39
-33 82 -33 43 0 54 5 82 33 28 28 33 39 33 82 0 42 -5 54 -31 81 -33 33 -92
46 -129 30z m75 -86 c26 -32 -13 -81 -47 -59 -35 22 -23 74 17 74 10 0 23 -7
30 -15z"/>
<path d="M1475 1431 c-45 -20 -70 -60 -70 -112 0 -42 5 -53 33 -81 28 -28 39
-33 82 -33 43 0 54 5 82 33 28 28 33 39 33 82 0 42 -5 54 -31 81 -33 33 -92
46 -129 30z m75 -86 c26 -32 -13 -81 -47 -59 -35 22 -23 74 17 74 10 0 23 -7
30 -15z"/>
<path d="M815 1266 c-37 -16 -70 -52 -84 -89 -19 -49 -15 -57 29 -57 29 0 40
4 40 15 0 26 47 65 77 65 44 -1 83 -42 83 -88 0 -10 -54 -90 -120 -178 -66
-87 -120 -166 -120 -175 0 -34 21 -39 172 -39 l148 0 0 40 0 40 -100 0 -100 0
95 126 c56 75 97 140 101 160 23 125 -106 231 -221 180z"/>
<path d="M1292 1268 c-21 -27 -212 -377 -212 -390 0 -30 24 -38 112 -38 l88 0
0 -60 0 -60 40 0 40 0 0 60 0 60 40 0 40 0 0 40 0 40 -40 0 -40 0 0 168 c0
173 -4 192 -41 192 -9 0 -21 -6 -27 -12z m-12 -268 l0 -80 -45 0 -46 0 43 80
c24 44 44 80 46 80 1 0 2 -36 2 -80z"/>
</g>
</svg>
