<?xml version="1.0" standalone="no"?>
<!DOCTYPE svg PUBLIC "-//W3C//DTD SVG 20010904//EN"
 "http://www.w3.org/TR/2001/REC-SVG-20010904/DTD/svg10.dtd">
<svg version="1.0" xmlns="http://www.w3.org/2000/svg"
 width="512.000000pt" height="512.000000pt" viewBox="0 0 512.000000 512.000000"
 preserveAspectRatio="xMidYMid meet">

<g transform="translate(0.000000,512.000000) scale(0.100000,-0.100000)"
fill="#000000" stroke="none">
<path d="M2354 5111 c-70 -9 -142 -46 -172 -89 -11 -15 -45 -88 -74 -162 -53
-134 -54 -135 -93 -147 -258 -81 -421 -149 -577 -239 l-47 -27 -137 59 c-157
67 -224 76 -299 40 -52 -26 -355 -329 -381 -381 -36 -75 -27 -142 40 -299 l59
-137 -27 -47 c-68 -118 -149 -300 -191 -432 -26 -80 -51 -154 -55 -165 -5 -15
-46 -36 -141 -74 -74 -29 -148 -63 -166 -77 -17 -13 -44 -50 -60 -81 l-28 -58
0 -235 0 -235 28 -58 c16 -31 43 -68 60 -81 18 -14 92 -48 166 -77 95 -38 136
-59 141 -74 4 -11 29 -85 55 -165 42 -132 123 -314 191 -432 l27 -47 -59 -137
c-67 -157 -76 -224 -40 -299 26 -52 329 -355 381 -381 75 -36 142 -27 299 40
l137 59 47 -27 c156 -90 319 -158 577 -239 39 -12 40 -13 93 -147 30 -74 65
-149 78 -167 13 -17 50 -44 81 -60 l58 -28 235 0 235 0 58 28 c31 16 68 43 81
60 14 18 48 92 77 166 38 95 59 136 74 141 11 5 85 29 165 54 132 42 310 121
432 192 l47 27 137 -59 c157 -67 224 -76 299 -40 52 26 355 329 381 381 36 75
27 142 -40 299 l-59 137 27 47 c92 158 150 299 243 590 6 19 35 35 143 79 74
30 149 65 167 79 17 13 44 50 60 81 l28 58 0 235 0 235 -28 58 c-16 31 -43 68
-60 81 -18 14 -93 49 -167 79 -108 44 -137 60 -143 79 -93 291 -151 432 -243
590 l-27 47 59 137 c67 157 76 224 40 299 -26 54 -329 356 -381 380 -22 10
-63 21 -91 23 -46 4 -68 -3 -199 -58 l-146 -63 -47 27 c-122 71 -300 150 -432
192 -80 25 -154 49 -165 54 -15 5 -36 46 -74 141 -29 74 -63 148 -77 166 -13
17 -49 44 -79 58 -53 26 -62 27 -247 30 -106 2 -221 0 -254 -4z m380 -170 c42
-5 61 -13 69 -27 6 -10 37 -84 69 -163 31 -80 66 -153 76 -163 10 -10 67 -32
128 -47 196 -52 348 -115 518 -215 58 -34 107 -56 125 -56 16 0 98 29 182 66
110 46 160 63 178 59 32 -8 308 -284 316 -316 4 -18 -13 -68 -59 -178 -37 -84
-66 -166 -66 -182 0 -18 22 -67 56 -124 96 -164 155 -306 210 -504 19 -69 41
-132 50 -142 9 -10 84 -45 167 -78 84 -34 158 -65 166 -70 19 -12 29 -97 29
-241 0 -152 -9 -227 -32 -243 -9 -7 -84 -38 -165 -70 -82 -32 -156 -66 -165
-76 -9 -9 -31 -73 -50 -142 -55 -198 -114 -340 -210 -504 -34 -57 -56 -106
-56 -124 0 -16 29 -98 66 -182 46 -110 63 -160 59 -178 -8 -32 -284 -308 -316
-316 -18 -4 -68 13 -178 59 -84 37 -166 66 -182 66 -18 0 -67 -22 -124 -56
-165 -96 -329 -164 -519 -214 -59 -16 -117 -36 -126 -45 -10 -9 -46 -86 -81
-172 -34 -85 -68 -160 -75 -168 -28 -27 -412 -33 -462 -6 -10 5 -44 77 -80
169 -34 87 -70 166 -80 175 -10 10 -74 32 -143 51 -198 55 -340 114 -504 210
-57 34 -106 56 -124 56 -16 0 -98 -29 -182 -66 -110 -46 -160 -63 -178 -59
-32 8 -308 284 -316 316 -4 18 13 68 59 178 37 84 66 166 66 182 0 18 -22 67
-56 124 -96 164 -155 306 -210 504 -19 69 -41 132 -50 142 -9 10 -84 45 -167
78 -84 34 -158 65 -166 70 -19 12 -29 97 -29 241 0 144 10 229 29 241 8 5 82
36 166 70 83 33 159 69 168 79 9 9 29 67 45 126 51 196 115 349 214 518 34 58
56 107 56 125 0 16 -29 98 -66 182 -46 110 -63 160 -59 178 8 32 284 308 316
316 18 4 68 -13 178 -59 84 -37 166 -66 182 -66 18 0 67 22 124 56 164 96 306
155 504 210 69 19 132 41 142 50 10 9 45 84 78 167 34 84 66 159 71 167 5 8
32 17 62 21 74 9 281 9 352 0z"/>
<path d="M2385 4429 c-339 -32 -676 -162 -952 -368 -574 -429 -855 -1164 -713
-1869 110 -545 454 -1010 951 -1285 79 -44 259 -118 354 -146 570 -168 1180
-59 1655 295 583 434 864 1166 719 1879 -190 935 -1063 1582 -2014 1494z m471
-189 c523 -89 988 -436 1229 -918 384 -767 136 -1703 -577 -2179 -785 -523
-1843 -314 -2365 469 -386 579 -385 1318 2 1898 283 423 749 701 1259 750 121
11 316 3 452 -20z"/>
<path d="M2725 3991 c-22 -10 -50 -29 -61 -42 -40 -45 -1017 -1454 -1030
-1486 -34 -80 2 -178 81 -222 25 -13 77 -17 336 -21 l305 -5 -113 -475 c-129
-539 -132 -568 -77 -637 79 -99 230 -101 301 -4 11 14 243 347 516 739 352
503 501 725 509 756 14 54 1 110 -38 156 -54 64 -59 65 -390 68 l-300 3 113
477 c67 282 113 497 113 527 0 134 -142 223 -265 166z m93 -173 c2 -9 -53
-254 -122 -546 -70 -291 -126 -539 -126 -551 0 -12 11 -33 25 -46 l24 -25 350
0 c192 0 352 -4 355 -9 3 -4 -218 -330 -492 -724 -477 -687 -532 -759 -532
-699 0 11 56 256 125 546 69 290 125 537 125 548 0 11 -13 33 -29 49 l-29 29
-351 0 c-193 0 -351 3 -351 6 0 16 1004 1444 1014 1441 6 -2 12 -11 14 -19z"/>
</g>
</svg>
